<?xml version="1.0" standalone="no"?>
<!DOCTYPE svg PUBLIC "-//W3C//DTD SVG 20010904//EN"
 "http://www.w3.org/TR/2001/REC-SVG-20010904/DTD/svg10.dtd">
<svg version="1.0" xmlns="http://www.w3.org/2000/svg"
 width="728.000000pt" height="122.000000pt" viewBox="0 0 728.000000 122.000000"
 preserveAspectRatio="xMidYMid meet">
<metadata>
Created by potrace 1.16, written by Peter Selinger 2001-2019
</metadata>
<g transform="translate(0.000000,122.000000) scale(0.100000,-0.100000)"
fill="#000000" stroke="none">
<path d="M0 610 l0 -610 3640 0 3640 0 0 610 0 610 -3640 0 -3640 0 0 -610z
m1190 190 c0 -53 -2 -60 -20 -60 -18 0 -20 7 -20 60 0 53 2 60 20 60 18 0 20
-7 20 -60z m878 -16 c53 -5 62 -8 62 -25 0 -17 -8 -19 -90 -19 l-90 0 0 -119
c0 -161 -7 -211 -31 -211 -18 0 -18 9 -12 170 l6 170 -86 0 c-85 0 -87 1 -87
24 l0 24 133 -4 c72 -3 160 -7 195 -10z m-1723 -31 c-2 -16 -9 -77 -15 -138
-6 -60 -13 -120 -16 -132 -4 -23 -3 -23 111 -23 l115 0 0 -25 0 -25 -124 0
c-95 0 -126 3 -135 14 -10 11 -8 53 6 185 17 165 18 171 40 171 19 0 22 -4 18
-27z m3002 -60 c-3 -21 -14 -93 -23 -160 -15 -107 -20 -123 -36 -123 -23 0
-23 11 2 175 11 72 20 133 20 138 0 4 10 7 21 7 19 0 21 -4 16 -37z m-2337 -8
c0 -24 3 -25 60 -25 52 0 60 -3 60 -19 0 -15 -11 -19 -62 -25 -34 -3 -63 -8
-65 -10 -2 -2 -6 -33 -10 -69 l-6 -66 47 -12 c51 -13 59 -20 50 -42 -5 -13
-13 -12 -66 4 -70 21 -78 29 -72 76 2 18 6 49 8 68 l5 35 -55 0 c-51 0 -54 1
-54 25 0 24 3 25 54 25 51 0 54 1 60 30 7 39 46 44 46 5z m410 1 c0 -22 -4
-24 -69 -28 -39 -2 -72 -6 -74 -8 -3 -3 -7 -18 -9 -35 -3 -29 -2 -30 52 -37
142 -20 148 -26 99 -109 -35 -60 -44 -68 -68 -63 -9 2 -42 8 -73 14 -48 10
-58 15 -58 32 0 18 4 20 33 14 103 -21 104 -21 126 15 11 18 18 36 16 40 -3 4
-37 10 -75 14 -91 9 -104 22 -95 89 3 28 10 55 15 60 5 5 46 12 92 16 46 4 84
8 86 9 1 0 2 -10 2 -23z m1177 12 c6 -7 16 -58 23 -113 9 -77 17 -104 32 -115
12 -10 17 -22 13 -33 -6 -14 -11 -15 -39 -3 -26 11 -47 10 -136 -4 -133 -22
-139 -18 -120 70 8 39 19 64 31 70 10 6 54 10 98 10 l81 0 -6 43 c-4 23 -7 43
-8 44 -1 1 -44 -9 -96 -22 -52 -14 -96 -25 -97 -25 -2 0 -3 10 -3 23 0 21 9
25 88 44 106 25 127 27 139 11z m179 -188 c6 -18 23 0 96 103 33 46 52 65 63
61 22 -9 19 -19 -25 -79 -22 -30 -58 -79 -80 -109 -58 -79 -69 -72 -113 77
-21 67 -37 125 -37 129 0 3 8 8 18 10 14 3 22 -14 45 -87 15 -49 30 -97 33
-105z m-1971 131 c14 -28 22 -56 19 -65 -3 -8 -35 -21 -76 -30 -90 -20 -98
-20 -98 3 0 16 11 22 58 31 73 16 73 16 60 46 -11 23 -16 25 -48 20 -19 -3
-47 -6 -62 -6 -29 0 -31 -5 -43 -106 l-6 -51 40 -7 c112 -18 141 -27 141 -47
0 -23 8 -23 -104 -3 -50 9 -98 23 -106 30 -12 12 -12 28 -3 105 7 50 17 97 23
104 11 13 48 20 137 23 42 2 43 1 68 -47z m1397 14 l3 -35 62 29 c60 29 62 29
68 10 4 -11 5 -21 3 -23 -1 -1 -31 -15 -65 -31 l-63 -29 0 -83 c0 -82 0 -83
-25 -83 l-25 0 0 140 c0 132 1 140 19 140 15 0 21 -8 23 -35z m1023 -14 c14
-28 22 -56 19 -65 -3 -8 -35 -21 -76 -30 -90 -20 -98 -20 -98 3 0 16 11 22 58
31 73 16 73 16 60 46 -11 23 -16 25 -48 20 -19 -3 -47 -6 -62 -6 -29 0 -31 -5
-43 -106 l-6 -51 40 -7 c112 -18 141 -27 141 -47 0 -23 8 -23 -104 -3 -50 9
-98 23 -106 30 -12 12 -12 28 -3 105 7 50 17 97 23 104 11 13 48 20 137 23 42
2 43 1 68 -47z"/>
<path d="M2416 514 c-6 -15 -8 -54 -3 -54 1 0 40 7 87 15 47 8 86 15 88 15 1
0 2 9 2 20 0 18 -7 20 -84 20 -67 0 -85 -3 -90 -16z"/>
</g>
</svg>
